<mxfile host="app.diagrams.net" modified="2021-10-26T11:10:52.502Z" agent="5.0 (X11)" etag="_UGJCmL8p0ln9aO3hnpl" version="15.5.9" type="github">
  <diagram id="s8UazuxxXrzk4buoSBhP" name="Page-1">
    <mxGraphModel dx="1108" dy="1595" grid="1" gridSize="10" guides="1" tooltips="1" connect="1" arrows="1" fold="1" page="1" pageScale="1" pageWidth="850" pageHeight="1100" math="0" shadow="0">
      <root>
        <mxCell id="0" />
        <mxCell id="1" parent="0" />
        <mxCell id="wy_W4sVEvX35A_wqAEA1-1" value="student" style="swimlane;childLayout=stackLayout;horizontal=1;startSize=30;horizontalStack=0;rounded=1;fontSize=14;fontStyle=0;strokeWidth=2;resizeParent=0;resizeLast=1;shadow=0;dashed=0;align=center;" vertex="1" parent="1">
          <mxGeometry x="400" y="-20" width="160" height="200" as="geometry" />
        </mxCell>
        <mxCell id="wy_W4sVEvX35A_wqAEA1-2" value="+id&#xa;+name&#xa;+email&#xa;+department&#xa;+courses+registrationnumber&#xa;- password&#xa;" style="align=left;strokeColor=none;fillColor=none;spacingLeft=4;fontSize=12;verticalAlign=top;resizable=0;rotatable=0;part=1;" vertex="1" parent="wy_W4sVEvX35A_wqAEA1-1">
          <mxGeometry y="30" width="160" height="170" as="geometry" />
        </mxCell>
        <mxCell id="wy_W4sVEvX35A_wqAEA1-3" value="teacher" style="swimlane;childLayout=stackLayout;horizontal=1;startSize=30;horizontalStack=0;rounded=1;fontSize=14;fontStyle=0;strokeWidth=2;resizeParent=0;resizeLast=1;shadow=0;dashed=0;align=center;" vertex="1" parent="1">
          <mxGeometry x="310" y="260" width="160" height="200" as="geometry" />
        </mxCell>
        <mxCell id="wy_W4sVEvX35A_wqAEA1-4" value="+id&#xa;+name&#xa;+email&#xa;+password&#xa;+courses&#xa;+department&#xa;" style="align=left;strokeColor=none;fillColor=none;spacingLeft=4;fontSize=12;verticalAlign=top;resizable=0;rotatable=0;part=1;" vertex="1" parent="wy_W4sVEvX35A_wqAEA1-3">
          <mxGeometry y="30" width="160" height="170" as="geometry" />
        </mxCell>
        <mxCell id="wy_W4sVEvX35A_wqAEA1-5" value="assignment" style="swimlane;childLayout=stackLayout;horizontal=1;startSize=30;horizontalStack=0;rounded=1;fontSize=14;fontStyle=0;strokeWidth=2;resizeParent=0;resizeLast=1;shadow=0;dashed=0;align=center;" vertex="1" parent="1">
          <mxGeometry x="60" y="110" width="160" height="160" as="geometry" />
        </mxCell>
        <mxCell id="wy_W4sVEvX35A_wqAEA1-6" value="+Id&#xa;&#xa;+name+subejctid&#xa;+teacherId&#xa;+studentId&#xa;+content&#xa;+availability&#xa;" style="align=left;strokeColor=none;fillColor=none;spacingLeft=4;fontSize=12;verticalAlign=top;resizable=0;rotatable=0;part=1;" vertex="1" parent="wy_W4sVEvX35A_wqAEA1-5">
          <mxGeometry y="30" width="160" height="130" as="geometry" />
        </mxCell>
        <mxCell id="wy_W4sVEvX35A_wqAEA1-7" value="course" style="swimlane;childLayout=stackLayout;horizontal=1;startSize=30;horizontalStack=0;rounded=1;fontSize=14;fontStyle=0;strokeWidth=2;resizeParent=0;resizeLast=1;shadow=0;dashed=0;align=center;" vertex="1" parent="1">
          <mxGeometry x="690" y="50" width="160" height="120" as="geometry" />
        </mxCell>
        <mxCell id="wy_W4sVEvX35A_wqAEA1-8" value="+Id&#xa;+name&#xa;+code&#xa;content&#xa;" style="align=left;strokeColor=none;fillColor=none;spacingLeft=4;fontSize=12;verticalAlign=top;resizable=0;rotatable=0;part=1;" vertex="1" parent="wy_W4sVEvX35A_wqAEA1-7">
          <mxGeometry y="30" width="160" height="90" as="geometry" />
        </mxCell>
        <mxCell id="wy_W4sVEvX35A_wqAEA1-11" value="1,n" style="edgeStyle=orthogonalEdgeStyle;rounded=0;orthogonalLoop=1;jettySize=auto;html=1;entryX=-0.025;entryY=0.411;entryDx=0;entryDy=0;entryPerimeter=0;" edge="1" parent="1" source="wy_W4sVEvX35A_wqAEA1-10" target="wy_W4sVEvX35A_wqAEA1-8">
          <mxGeometry relative="1" as="geometry" />
        </mxCell>
        <mxCell id="wy_W4sVEvX35A_wqAEA1-12" value="1,n" style="edgeStyle=orthogonalEdgeStyle;rounded=0;orthogonalLoop=1;jettySize=auto;html=1;entryX=0;entryY=0.5;entryDx=0;entryDy=0;" edge="1" parent="1" source="wy_W4sVEvX35A_wqAEA1-10" target="wy_W4sVEvX35A_wqAEA1-2">
          <mxGeometry relative="1" as="geometry" />
        </mxCell>
        <mxCell id="wy_W4sVEvX35A_wqAEA1-10" value="read content" style="shape=rhombus;perimeter=rhombusPerimeter;whiteSpace=wrap;html=1;align=center;" vertex="1" parent="1">
          <mxGeometry x="630" y="210" width="120" height="60" as="geometry" />
        </mxCell>
        <mxCell id="wy_W4sVEvX35A_wqAEA1-14" value="1,n" style="edgeStyle=orthogonalEdgeStyle;rounded=0;orthogonalLoop=1;jettySize=auto;html=1;" edge="1" parent="1" source="wy_W4sVEvX35A_wqAEA1-13" target="wy_W4sVEvX35A_wqAEA1-4">
          <mxGeometry relative="1" as="geometry" />
        </mxCell>
        <mxCell id="wy_W4sVEvX35A_wqAEA1-15" value="1,1" style="edgeStyle=orthogonalEdgeStyle;rounded=0;orthogonalLoop=1;jettySize=auto;html=1;exitX=1;exitY=0.5;exitDx=0;exitDy=0;" edge="1" parent="1" source="wy_W4sVEvX35A_wqAEA1-13" target="wy_W4sVEvX35A_wqAEA1-8">
          <mxGeometry relative="1" as="geometry" />
        </mxCell>
        <mxCell id="wy_W4sVEvX35A_wqAEA1-13" value="post content" style="shape=rhombus;perimeter=rhombusPerimeter;whiteSpace=wrap;html=1;align=center;" vertex="1" parent="1">
          <mxGeometry x="610" y="340" width="120" height="80" as="geometry" />
        </mxCell>
        <mxCell id="wy_W4sVEvX35A_wqAEA1-31" value="1,1" style="edgeStyle=orthogonalEdgeStyle;rounded=0;orthogonalLoop=1;jettySize=auto;html=1;" edge="1" parent="1" source="wy_W4sVEvX35A_wqAEA1-30" target="wy_W4sVEvX35A_wqAEA1-6">
          <mxGeometry relative="1" as="geometry" />
        </mxCell>
        <mxCell id="wy_W4sVEvX35A_wqAEA1-32" value="1,n" style="edgeStyle=orthogonalEdgeStyle;rounded=0;orthogonalLoop=1;jettySize=auto;html=1;" edge="1" parent="1" source="wy_W4sVEvX35A_wqAEA1-30" target="wy_W4sVEvX35A_wqAEA1-1">
          <mxGeometry relative="1" as="geometry" />
        </mxCell>
        <mxCell id="wy_W4sVEvX35A_wqAEA1-30" value="submitAssignmenrt" style="shape=rhombus;perimeter=rhombusPerimeter;whiteSpace=wrap;html=1;align=center;" vertex="1" parent="1">
          <mxGeometry x="180" y="-10" width="150" height="60" as="geometry" />
        </mxCell>
        <mxCell id="wy_W4sVEvX35A_wqAEA1-34" style="edgeStyle=orthogonalEdgeStyle;rounded=0;orthogonalLoop=1;jettySize=auto;html=1;entryX=0;entryY=0.75;entryDx=0;entryDy=0;" edge="1" parent="1" source="wy_W4sVEvX35A_wqAEA1-33" target="wy_W4sVEvX35A_wqAEA1-4">
          <mxGeometry relative="1" as="geometry" />
        </mxCell>
        <mxCell id="wy_W4sVEvX35A_wqAEA1-36" style="edgeStyle=orthogonalEdgeStyle;rounded=0;orthogonalLoop=1;jettySize=auto;html=1;" edge="1" parent="1" source="wy_W4sVEvX35A_wqAEA1-33" target="wy_W4sVEvX35A_wqAEA1-6">
          <mxGeometry relative="1" as="geometry" />
        </mxCell>
        <mxCell id="wy_W4sVEvX35A_wqAEA1-33" value="post assignment" style="shape=rhombus;perimeter=rhombusPerimeter;whiteSpace=wrap;html=1;align=center;" vertex="1" parent="1">
          <mxGeometry x="150" y="440" width="120" height="60" as="geometry" />
        </mxCell>
        <mxCell id="wy_W4sVEvX35A_wqAEA1-50" value="administrative" style="swimlane;childLayout=stackLayout;horizontal=1;startSize=30;horizontalStack=0;rounded=1;fontSize=14;fontStyle=0;strokeWidth=2;resizeParent=0;resizeLast=1;shadow=0;dashed=0;align=center;" vertex="1" parent="1">
          <mxGeometry x="490" y="430" width="160" height="120" as="geometry" />
        </mxCell>
        <mxCell id="wy_W4sVEvX35A_wqAEA1-51" value="+id&#xa;+name&#xa;+email&#xa;+department&#xa;Â " style="align=left;strokeColor=none;fillColor=none;spacingLeft=4;fontSize=12;verticalAlign=top;resizable=0;rotatable=0;part=1;" vertex="1" parent="wy_W4sVEvX35A_wqAEA1-50">
          <mxGeometry y="30" width="160" height="90" as="geometry" />
        </mxCell>
        <mxCell id="wy_W4sVEvX35A_wqAEA1-53" value="fee" style="swimlane;childLayout=stackLayout;horizontal=1;startSize=30;horizontalStack=0;rounded=1;fontSize=14;fontStyle=0;strokeWidth=2;resizeParent=0;resizeLast=1;shadow=0;dashed=0;align=center;" vertex="1" parent="1">
          <mxGeometry x="190" y="600" width="160" height="120" as="geometry" />
        </mxCell>
        <mxCell id="wy_W4sVEvX35A_wqAEA1-54" value="+Id&#xa;+studentId&#xa;+picture&#xa;+&#xa;" style="align=left;strokeColor=none;fillColor=none;spacingLeft=4;fontSize=12;verticalAlign=top;resizable=0;rotatable=0;part=1;" vertex="1" parent="wy_W4sVEvX35A_wqAEA1-53">
          <mxGeometry y="30" width="160" height="90" as="geometry" />
        </mxCell>
      </root>
    </mxGraphModel>
  </diagram>
</mxfile>
